<svg xmlns="http://www.w3.org/2000/svg" viewBox="0 0 400 400" role="img" aria-label="うさぎキャラクター ぴょこ">
  <defs>
    <linearGradient id="bgPyo" x1="0" y1="0" x2="1" y2="1">
      <stop offset="0" stop-color="#FDEAF4"/>
      <stop offset="1" stop-color="#F8CFE6"/>
    </linearGradient>
  </defs>
  <rect x="20" y="20" width="360" height="360" rx="56" fill="url(#bgPyo)"/>
  <!-- ears -->
  <rect x="158" y="58" width="32" height="120" rx="16" fill="#FFFFFF" stroke="#3A3A3A" stroke-width="7"/>
  <rect x="210" y="58" width="32" height="120" rx="16" fill="#FFFFFF" stroke="#3A3A3A" stroke-width="7"/>
  <rect x="166" y="74" width="16" height="86" rx="8" fill="#FFC2DD"/>
  <rect x="218" y="74" width="16" height="86" rx="8" fill="#FFC2DD"/>
  <!-- head -->
  <circle cx="200" cy="232" r="100" fill="#FFFFFF" stroke="#3A3A3A" stroke-width="7"/>
  <!-- cheeks -->
  <circle cx="142" cy="250" r="21" fill="#FF9FC5" opacity="0.85"/>
  <circle cx="258" cy="250" r="21" fill="#FF9FC5" opacity="0.85"/>
  <!-- love eyes -->
  <path d="M165 222 a9 9 0 0 1 16 0 a9 9 0 0 1 16 0 q0 12 -16 22 q-16 -10 -16 -22 Z" fill="#FF6B8B" transform="translate(-18,0)"/>
  <path d="M165 222 a9 9 0 0 1 16 0 a9 9 0 0 1 16 0 q0 12 -16 22 q-16 -10 -16 -22 Z" fill="#FF6B8B" transform="translate(54,0)"/>
  <!-- nose / mouth -->
  <path d="M196 244 l8 0 l-4 6 z" fill="#FF7AA6"/>
  <path d="M200 250 q-10 14 -20 4 M200 250 q10 14 20 4" fill="none" stroke="#3A3A3A" stroke-width="6" stroke-linecap="round"/>
</svg>
